<svg width="305" height="150" viewBox="0 0 305 150" fill="none" xmlns="http://www.w3.org/2000/svg">
  <path fill-rule="evenodd" clip-rule="evenodd"
    d="M2.7 2.7H147.3V17H150V2.7V0H147.3H2.7H0V2.7V147.3V150H2.7H147.3H150V147.3V126H147.3V147.3H2.7V2.7Z"
    fill="#384334" />
  <path
    d="M24.5909 79V32.4545H42.0455C45.6212 32.4545 48.6212 33.0758 51.0455 34.3182C53.4849 35.5606 55.3258 37.303 56.5682 39.5455C57.8258 41.7727 58.4545 44.3712 58.4545 47.3409C58.4545 50.3258 57.8182 52.9167 56.5455 55.1136C55.2879 57.2955 53.4318 58.9848 50.9773 60.1818C48.5227 61.3636 45.5076 61.9545 41.9318 61.9545H29.5V54.9545H40.7955C42.8864 54.9545 44.5985 54.6667 45.9318 54.0909C47.2652 53.5 48.25 52.6439 48.8864 51.5227C49.5379 50.3864 49.8636 48.9924 49.8636 47.3409C49.8636 45.6894 49.5379 44.2803 48.8864 43.1136C48.2348 41.9318 47.2424 41.0379 45.9091 40.4318C44.5758 39.8106 42.8561 39.5 40.75 39.5H33.0227V79H24.5909ZM48.6364 57.9091L60.1591 79H50.75L39.4318 57.9091H48.6364ZM66.2159 79V32.4545H96.4886V39.5227H74.6477V52.1591H94.9205V59.2273H74.6477V71.9318H96.6705V79H66.2159ZM111.068 79H102.068L118.455 32.4545H128.864L145.273 79H136.273L123.841 42H123.477L111.068 79ZM111.364 60.75H135.909V67.5227H111.364V60.75ZM151.403 79V32.4545H159.835V71.9318H180.335V79H151.403ZM187.653 79V32.4545H196.085V71.9318H216.585V79H187.653ZM223.903 79V32.4545H254.176V39.5227H232.335V52.1591H252.608V59.2273H232.335V71.9318H254.358V79H223.903ZM288.074 45.25C287.862 43.2652 286.968 41.7197 285.392 40.6136C283.831 39.5076 281.801 38.9545 279.301 38.9545C277.544 38.9545 276.036 39.2197 274.778 39.75C273.521 40.2803 272.559 41 271.892 41.9091C271.225 42.8182 270.884 43.8561 270.869 45.0227C270.869 45.9924 271.089 46.8333 271.528 47.5455C271.983 48.2576 272.597 48.8636 273.369 49.3636C274.142 49.8485 274.998 50.2576 275.938 50.5909C276.877 50.9242 277.824 51.2045 278.778 51.4318L283.142 52.5227C284.9 52.9318 286.589 53.4848 288.21 54.1818C289.847 54.8788 291.309 55.7576 292.597 56.8182C293.9 57.8788 294.93 59.1591 295.688 60.6591C296.445 62.1591 296.824 63.9167 296.824 65.9318C296.824 68.6591 296.127 71.0606 294.733 73.1364C293.339 75.197 291.324 76.8106 288.688 77.9773C286.066 79.1288 282.892 79.7045 279.165 79.7045C275.544 79.7045 272.4 79.1439 269.733 78.0227C267.081 76.9015 265.006 75.2652 263.506 73.1136C262.021 70.9621 261.218 68.3409 261.097 65.25H269.392C269.513 66.8712 270.013 68.2197 270.892 69.2955C271.771 70.3712 272.915 71.1742 274.324 71.7045C275.748 72.2348 277.339 72.5 279.097 72.5C280.93 72.5 282.536 72.2273 283.915 71.6818C285.309 71.1212 286.4 70.3485 287.188 69.3636C287.975 68.3636 288.377 67.197 288.392 65.8636C288.377 64.6515 288.021 63.6515 287.324 62.8636C286.627 62.0606 285.65 61.3939 284.392 60.8636C283.15 60.3182 281.695 59.8333 280.028 59.4091L274.733 58.0455C270.9 57.0606 267.869 55.5682 265.642 53.5682C263.43 51.553 262.324 48.8788 262.324 45.5455C262.324 42.803 263.066 40.4015 264.551 38.3409C266.051 36.2803 268.089 34.6818 270.665 33.5455C273.241 32.3939 276.157 31.8182 279.415 31.8182C282.718 31.8182 285.612 32.3939 288.097 33.5455C290.597 34.6818 292.559 36.2652 293.983 38.2955C295.407 40.3106 296.142 42.6288 296.188 45.25H288.074Z"
    fill="#384334" />
  <path
    d="M23.1705 99.9091V113H21.5852V99.9091H23.1705ZM36.7296 99.9091V113H35.1955L28.062 102.722H27.9341V113H26.3489V99.9091H27.883L35.0421 110.213H35.1699V99.9091H36.7296ZM39.1857 101.315V99.9091H49.0039V101.315H44.8874V113H43.3022V101.315H39.1857ZM51.4505 113V99.9091H59.351V101.315H53.0357V105.739H58.9419V107.145H53.0357V111.594H59.4533V113H51.4505ZM62.2083 113V99.9091H66.6316C67.6543 99.9091 68.4938 100.084 69.15 100.433C69.8063 100.778 70.2921 101.254 70.6074 101.859C70.9228 102.464 71.0804 103.152 71.0804 103.923C71.0804 104.695 70.9228 105.379 70.6074 105.975C70.2921 106.572 69.8084 107.04 69.1564 107.381C68.5044 107.718 67.6713 107.886 66.6571 107.886H63.0776V106.455H66.606C67.3049 106.455 67.8674 106.352 68.2935 106.148C68.7239 105.943 69.035 105.653 69.2267 105.278C69.4228 104.899 69.5208 104.447 69.5208 103.923C69.5208 103.399 69.4228 102.941 69.2267 102.549C69.0307 102.157 68.7175 101.854 68.2871 101.641C67.8567 101.424 67.2878 101.315 66.5804 101.315H63.7935V113H62.2083ZM68.3702 107.119L71.5918 113H69.7509L66.5804 107.119H68.3702ZM75.3072 99.9091V113H73.7219V99.9091H75.3072ZM89.5311 106.455C89.5311 107.835 89.2818 109.028 88.7832 110.034C88.2846 111.04 87.6007 111.815 86.7314 112.361C85.862 112.906 84.8691 113.179 83.7527 113.179C82.6362 113.179 81.6433 112.906 80.774 112.361C79.9047 111.815 79.2207 111.04 78.7221 110.034C78.2235 109.028 77.9743 107.835 77.9743 106.455C77.9743 105.074 78.2235 103.881 78.7221 102.875C79.2207 101.869 79.9047 101.094 80.774 100.548C81.6433 100.003 82.6362 99.7301 83.7527 99.7301C84.8691 99.7301 85.862 100.003 86.7314 100.548C87.6007 101.094 88.2846 101.869 88.7832 102.875C89.2818 103.881 89.5311 105.074 89.5311 106.455ZM87.997 106.455C87.997 105.321 87.8074 104.364 87.4281 103.585C87.0531 102.805 86.5439 102.214 85.9004 101.814C85.2612 101.413 84.5453 101.213 83.7527 101.213C82.96 101.213 82.242 101.413 81.5985 101.814C80.9593 102.214 80.4501 102.805 80.0708 103.585C79.6958 104.364 79.5083 105.321 79.5083 106.455C79.5083 107.588 79.6958 108.545 80.0708 109.325C80.4501 110.104 80.9593 110.695 81.5985 111.095C82.242 111.496 82.96 111.696 83.7527 111.696C84.5453 111.696 85.2612 111.496 85.9004 111.095C86.5439 110.695 87.0531 110.104 87.4281 109.325C87.8074 108.545 87.997 107.588 87.997 106.455ZM92.1966 113V99.9091H96.6199C97.6426 99.9091 98.4821 100.084 99.1383 100.433C99.7946 100.778 100.28 101.254 100.596 101.859C100.911 102.464 101.069 103.152 101.069 103.923C101.069 104.695 100.911 105.379 100.596 105.975C100.28 106.572 99.7967 107.04 99.1447 107.381C98.4927 107.718 97.6596 107.886 96.6454 107.886H93.0659V106.455H96.5943C97.2931 106.455 97.8556 106.352 98.2818 106.148C98.7122 105.943 99.0233 105.653 99.215 105.278C99.411 104.899 99.5091 104.447 99.5091 103.923C99.5091 103.399 99.411 102.941 99.215 102.549C99.019 102.157 98.7058 101.854 98.2754 101.641C97.845 101.424 97.2761 101.315 96.5687 101.315H93.7818V113H92.1966ZM98.3585 107.119L101.58 113H99.7392L96.5687 107.119H98.3585ZM112.812 113H108.773V99.9091H112.991C114.261 99.9091 115.348 100.171 116.251 100.695C117.155 101.215 117.847 101.963 118.329 102.939C118.81 103.911 119.051 105.074 119.051 106.429C119.051 107.793 118.808 108.967 118.322 109.951C117.837 110.931 117.129 111.685 116.2 112.214C115.271 112.738 114.142 113 112.812 113ZM110.358 111.594H112.71C113.793 111.594 114.69 111.385 115.401 110.967C116.113 110.55 116.643 109.955 116.993 109.184C117.342 108.413 117.517 107.494 117.517 106.429C117.517 105.372 117.344 104.462 116.999 103.7C116.654 102.933 116.138 102.344 115.452 101.935C114.766 101.522 113.912 101.315 112.889 101.315H110.358V111.594ZM121.71 113V99.9091H129.611V101.315H123.295V105.739H129.202V107.145H123.295V111.594H129.713V113H121.71ZM139.627 103.182C139.55 102.534 139.239 102.031 138.694 101.673C138.148 101.315 137.479 101.136 136.687 101.136C136.107 101.136 135.6 101.23 135.165 101.418C134.735 101.605 134.398 101.863 134.156 102.191C133.917 102.519 133.798 102.892 133.798 103.31C133.798 103.659 133.881 103.96 134.047 104.211C134.217 104.458 134.435 104.665 134.699 104.831C134.963 104.993 135.24 105.127 135.53 105.234C135.82 105.336 136.086 105.419 136.329 105.483L137.658 105.841C137.999 105.93 138.379 106.054 138.796 106.212C139.218 106.369 139.621 106.585 140.004 106.857C140.392 107.126 140.712 107.471 140.963 107.893C141.214 108.315 141.34 108.832 141.34 109.446C141.34 110.153 141.155 110.793 140.784 111.364C140.418 111.935 139.881 112.388 139.173 112.725C138.47 113.062 137.616 113.23 136.61 113.23C135.673 113.23 134.861 113.079 134.175 112.776C133.493 112.474 132.956 112.052 132.564 111.511C132.176 110.969 131.957 110.341 131.906 109.625H133.542C133.585 110.119 133.751 110.528 134.04 110.852C134.335 111.172 134.705 111.411 135.153 111.568C135.604 111.722 136.09 111.798 136.61 111.798C137.215 111.798 137.759 111.7 138.24 111.504C138.722 111.304 139.103 111.027 139.384 110.673C139.665 110.315 139.806 109.898 139.806 109.42C139.806 108.986 139.685 108.632 139.442 108.359C139.199 108.087 138.879 107.865 138.483 107.695C138.087 107.524 137.658 107.375 137.198 107.247L135.587 106.787C134.565 106.493 133.755 106.073 133.158 105.528C132.562 104.982 132.263 104.268 132.263 103.386C132.263 102.653 132.462 102.014 132.858 101.469C133.259 100.919 133.795 100.493 134.469 100.19C135.146 99.8835 135.903 99.7301 136.738 99.7301C137.582 99.7301 138.332 99.8814 138.988 100.184C139.644 100.482 140.164 100.891 140.548 101.411C140.935 101.931 141.14 102.521 141.161 103.182H139.627ZM145.532 99.9091V113H143.947V99.9091H145.532ZM157.659 104C157.518 103.57 157.333 103.184 157.103 102.843C156.877 102.498 156.607 102.204 156.291 101.961C155.98 101.718 155.626 101.533 155.23 101.405C154.834 101.277 154.399 101.213 153.926 101.213C153.151 101.213 152.445 101.413 151.81 101.814C151.175 102.214 150.67 102.805 150.295 103.585C149.92 104.364 149.733 105.321 149.733 106.455C149.733 107.588 149.923 108.545 150.302 109.325C150.681 110.104 151.195 110.695 151.842 111.095C152.49 111.496 153.219 111.696 154.028 111.696C154.778 111.696 155.439 111.536 156.01 111.217C156.585 110.893 157.033 110.437 157.352 109.849C157.676 109.256 157.838 108.56 157.838 107.759L158.324 107.861H154.386V106.455H159.372V107.861C159.372 108.939 159.142 109.876 158.682 110.673C158.226 111.47 157.595 112.088 156.79 112.527C155.989 112.962 155.068 113.179 154.028 113.179C152.869 113.179 151.851 112.906 150.973 112.361C150.099 111.815 149.418 111.04 148.928 110.034C148.442 109.028 148.199 107.835 148.199 106.455C148.199 105.419 148.337 104.488 148.614 103.661C148.896 102.83 149.292 102.123 149.803 101.539C150.315 100.955 150.92 100.508 151.619 100.197C152.317 99.8857 153.087 99.7301 153.926 99.7301C154.616 99.7301 155.26 99.8345 155.857 100.043C156.457 100.248 156.992 100.54 157.461 100.919C157.934 101.294 158.328 101.744 158.643 102.268C158.959 102.788 159.176 103.365 159.295 104H157.659ZM172.468 99.9091V113H170.934L163.8 102.722H163.672V113H162.087V99.9091H163.621L170.78 110.213H170.908V99.9091H172.468Z"
    fill="#384334" />
</svg>